<svg width="24" height="24" viewBox="0 0 24 24" fill="none" xmlns="http://www.w3.org/2000/svg">
<path d="M12.28 16.532L12.353 16.448C12.46 16.3034 12.5115 16.1253 12.4981 15.9459C12.4847 15.7666 12.4073 15.598 12.28 15.471L9.56 12.751H16.25L16.352 12.745C16.5319 12.7203 16.6967 12.6312 16.8159 12.4942C16.9351 12.3572 17.0005 12.1816 17 12L16.994 11.899C16.9695 11.7191 16.8807 11.5542 16.7438 11.4348C16.607 11.3155 16.4316 11.2498 16.25 11.25H9.56L12.282 8.53L12.354 8.446C12.4671 8.2939 12.5183 8.10463 12.4975 7.91626C12.4767 7.72789 12.3854 7.55438 12.2418 7.43061C12.0983 7.30685 11.9133 7.24201 11.7239 7.24913C11.5345 7.25625 11.3548 7.33481 11.221 7.469L7.22 11.469L7.147 11.553C7.04001 11.6976 6.98853 11.8757 7.00193 12.0551C7.01533 12.2344 7.09272 12.403 7.22 12.53L11.22 16.53L11.305 16.603C11.4494 16.7098 11.6273 16.7613 11.8064 16.7481C11.9855 16.7349 12.1539 16.6579 12.281 16.531L12.28 16.532ZM12 2C6.477 2 2 6.477 2 12C2 17.523 6.477 22 12 22C17.523 22 22 17.523 22 12C22 6.477 17.523 2 12 2ZM12 20.5C9.74566 20.5 7.58365 19.6045 5.98959 18.0104C4.39553 16.4163 3.5 14.2543 3.5 12C3.5 9.74566 4.39553 7.58365 5.98959 5.98959C7.58365 4.39553 9.74566 3.5 12 3.5C14.2543 3.5 16.4163 4.39553 18.0104 5.98959C19.6045 7.58365 20.5 9.74566 20.5 12C20.5 14.2543 19.6045 16.4163 18.0104 18.0104C16.4163 19.6045 14.2543 20.5 12 20.5Z" fill="#CBD5E1"/>
</svg>
