<svg width="24" height="24" viewBox="0 0 24 24" fill="none" xmlns="http://www.w3.org/2000/svg">
<g clip-path="url(#clip0_245_107)">
<path d="M19.0711 4.92892C22.9764 8.83427 22.9764 15.1657 19.0711 19.0711C15.1657 22.9764 8.83428 22.9764 4.92893 19.0711C1.02358 15.1657 1.02358 8.83427 4.92893 4.92892C8.83428 1.02357 15.1657 1.02357 19.0711 4.92892ZM18.0104 5.98958C16.4163 4.39552 14.2543 3.49998 12 3.49998C9.74566 3.49998 7.58365 4.39552 5.98959 5.98958C4.39553 7.58364 3.5 9.74565 3.5 12C3.5 14.2543 4.39553 16.4163 5.98959 18.0104C7.58365 19.6045 9.74566 20.5 12 20.5C14.2543 20.5 16.4163 19.6045 18.0104 18.0104C19.6045 16.4163 20.5 14.2543 20.5 12C20.5 9.74565 19.6045 7.58364 18.0104 5.98958ZM15.5355 8.46445C15.6762 8.6051 15.7552 8.79587 15.7552 8.99478C15.7552 9.19369 15.6762 9.38446 15.5355 9.52511L13.0607 12L15.5355 14.4749C15.6762 14.6155 15.7552 14.8063 15.7552 15.0052C15.7552 15.2041 15.6762 15.3949 15.5355 15.5355C15.3949 15.6762 15.2041 15.7552 15.0052 15.7552C14.8063 15.7552 14.6155 15.6762 14.4749 15.5355L12 13.0606L9.52513 15.5355C9.38447 15.6762 9.19371 15.7552 8.9948 15.7552C8.79588 15.7552 8.60512 15.6762 8.46447 15.5355C8.32381 15.3949 8.2448 15.2041 8.2448 15.0052C8.2448 14.8063 8.32381 14.6155 8.46447 14.4749L10.9393 12L8.46447 9.52511C8.32381 9.38446 8.2448 9.19369 8.2448 8.99478C8.2448 8.79587 8.32381 8.6051 8.46447 8.46445C8.60512 8.3238 8.79588 8.24478 8.9948 8.24478C9.19371 8.24478 9.38447 8.3238 9.52513 8.46445L12 10.9393L14.4749 8.46445C14.6155 8.3238 14.8063 8.24478 15.0052 8.24478C15.2041 8.24478 15.3949 8.3238 15.5355 8.46445Z" fill="#CBD5E1"/>
</g>
<defs>
<clipPath id="clip0_245_107">
<rect width="24" height="24" fill="white"/>
</clipPath>
</defs>
</svg>
