<svg width="20" height="20" viewBox="0 0 20 20" fill="none" xmlns="http://www.w3.org/2000/svg">
<path d="M17.5251 2.47497C18.0842 3.03414 18.3983 3.79253 18.3983 4.5833C18.3983 5.37408 18.0842 6.13247 17.5251 6.69164L7.55172 16.6666C7.32101 16.8975 7.03405 17.0641 6.71922 17.15L2.45589 18.3125C2.34963 18.3413 2.23764 18.3415 2.13126 18.3132C2.02487 18.2848 1.92786 18.2289 1.85005 18.151C1.77224 18.0731 1.71639 17.976 1.68815 17.8696C1.65991 17.7632 1.66028 17.6512 1.68922 17.545L2.85172 13.2816C2.93764 12.9668 3.10424 12.6798 3.33505 12.4491L13.3084 2.47497C13.8676 1.91581 14.6259 1.60168 15.4167 1.60168C16.2075 1.60168 16.9659 1.91581 17.5251 2.47497ZM12.5001 5.04997L4.21839 13.3333C4.14155 13.4102 4.08611 13.5059 4.05755 13.6108L3.18255 16.8191L6.39089 15.9441C6.49538 15.9148 6.59044 15.8588 6.66672 15.7816L14.9501 7.49997L12.5001 5.04997ZM14.1917 3.3583L13.3834 4.16664L15.8334 6.61664L16.6417 5.8083C16.9612 5.4823 17.1391 5.04338 17.1368 4.58693C17.1345 4.13048 16.9522 3.69338 16.6294 3.37062C16.3066 3.04785 15.8695 2.86551 15.4131 2.8632C14.9566 2.8609 14.5177 3.03882 14.1917 3.3583Z" fill="#2DD4BF"/>
</svg>
