<svg width="24" height="24" viewBox="0 0 24 24" fill="none" xmlns="http://www.w3.org/2000/svg">
<path d="M2.75006 18.0001H15.2501C15.4401 18.0001 15.623 18.0723 15.7619 18.202C15.9007 18.3318 15.9851 18.5093 15.9981 18.6989C16.011 18.8885 15.9515 19.0759 15.8316 19.2234C15.7117 19.3708 15.5403 19.4672 15.3521 19.4931L15.2501 19.5001H2.75006C2.55868 19.502 2.3738 19.4307 2.23328 19.3008C2.09275 19.1709 2.00721 18.9921 1.99417 18.8012C1.98114 18.6102 2.04159 18.4215 2.16316 18.2737C2.28472 18.1259 2.45819 18.0301 2.64806 18.0061L2.75006 18.0001ZM2.75006 11.5001H21.2501C21.4401 11.5001 21.623 11.5723 21.7619 11.702C21.9007 11.8318 21.9851 12.0094 21.9981 12.1989C22.011 12.3885 21.9515 12.5759 21.8316 12.7234C21.7117 12.8708 21.5403 12.9672 21.3521 12.9931L21.2501 13.0001H2.75006C2.56004 13 2.37712 12.9278 2.23827 12.7981C2.09942 12.6684 2.01499 12.4908 2.00203 12.3012C1.98908 12.1116 2.04857 11.9242 2.16849 11.7768C2.28841 11.6293 2.45981 11.533 2.64806 11.5071L2.75006 11.5001ZM2.75006 5.00305H18.2501C18.4401 5.00311 18.623 5.0753 18.7619 5.20502C18.9007 5.33475 18.9851 5.51235 18.9981 5.70193C19.011 5.89151 18.9515 6.07894 18.8316 6.22635C18.7117 6.37376 18.5403 6.47015 18.3521 6.49605L18.2501 6.50305H2.75006C2.56004 6.50299 2.37712 6.43081 2.23827 6.30108C2.09942 6.17135 2.01499 5.99375 2.00203 5.80417C1.98908 5.61459 2.04857 5.42716 2.16849 5.27975C2.28841 5.13235 2.45981 5.03595 2.64806 5.01005L2.75006 5.00305Z" fill="#CBD5E1"/>
</svg>
