<svg width="24" height="25" viewBox="0 0 24 25" fill="none" xmlns="http://www.w3.org/2000/svg">
<path d="M4 6.75C4 6.15326 4.23705 5.58097 4.65901 5.15901C5.08097 4.73705 5.65326 4.5 6.25 4.5H14.75C15.3467 4.5 15.919 4.73705 16.341 5.15901C16.7629 5.58097 17 6.15326 17 6.75V14.5H20.5V17.75C20.5 18.612 20.1576 19.4386 19.5481 20.0481C18.9386 20.6576 18.112 21 17.25 21H7.25C6.38805 21 5.5614 20.6576 4.9519 20.0481C4.34241 19.4386 4 18.612 4 17.75V6.75ZM17 16V19.5H17.25C17.7141 19.5 18.1592 19.3156 18.4874 18.9874C18.8156 18.6592 19 18.2141 19 17.75V16H17ZM15.5 19.5V6.75C15.5 6.55109 15.421 6.36032 15.2803 6.21967C15.1397 6.07902 14.9489 6 14.75 6H6.25C6.05109 6 5.86032 6.07902 5.71967 6.21967C5.57902 6.36032 5.5 6.55109 5.5 6.75V17.75C5.5 18.716 6.284 19.5 7.25 19.5H15.5ZM7 9.25C7 9.05109 7.07902 8.86032 7.21967 8.71967C7.36032 8.57902 7.55109 8.5 7.75 8.5H13.25C13.4489 8.5 13.6397 8.57902 13.7803 8.71967C13.921 8.86032 14 9.05109 14 9.25C14 9.44891 13.921 9.63968 13.7803 9.78033C13.6397 9.92098 13.4489 10 13.25 10H7.75C7.55109 10 7.36032 9.92098 7.21967 9.78033C7.07902 9.63968 7 9.44891 7 9.25ZM7 12.75C7 12.5511 7.07902 12.3603 7.21967 12.2197C7.36032 12.079 7.55109 12 7.75 12H13.25C13.4489 12 13.6397 12.079 13.7803 12.2197C13.921 12.3603 14 12.5511 14 12.75C14 12.9489 13.921 13.1397 13.7803 13.2803C13.6397 13.421 13.4489 13.5 13.25 13.5H7.75C7.55109 13.5 7.36032 13.421 7.21967 13.2803C7.07902 13.1397 7 12.9489 7 12.75ZM7 16.25C7 16.0511 7.07902 15.8603 7.21967 15.7197C7.36032 15.579 7.55109 15.5 7.75 15.5H10.25C10.4489 15.5 10.6397 15.579 10.7803 15.7197C10.921 15.8603 11 16.0511 11 16.25C11 16.4489 10.921 16.6397 10.7803 16.7803C10.6397 16.921 10.4489 17 10.25 17H7.75C7.55109 17 7.36032 16.921 7.21967 16.7803C7.07902 16.6397 7 16.4489 7 16.25Z" fill="#14B8A6"/>
</svg>
