<svg width="24" height="25" viewBox="0 0 24 25" fill="none" xmlns="http://www.w3.org/2000/svg">
<path d="M13 15.75C13 15.5511 13.079 15.3603 13.2197 15.2197C13.3603 15.079 13.5511 15 13.75 15H17.25C17.4489 15 17.6397 15.079 17.7803 15.2197C17.921 15.3603 18 15.5511 18 15.75C18 15.9489 17.921 16.1397 17.7803 16.2803C17.6397 16.421 17.4489 16.5 17.25 16.5H13.75C13.5511 16.5 13.3603 16.421 13.2197 16.2803C13.079 16.1397 13 15.9489 13 15.75ZM9.5 7.25C9.5 7.05109 9.42098 6.86032 9.28033 6.71967C9.13968 6.57902 8.94891 6.5 8.75 6.5C8.55109 6.5 8.36032 6.57902 8.21967 6.71967C8.07902 6.86032 8 7.05109 8 7.25V8.5H6.75C6.55109 8.5 6.36032 8.57902 6.21967 8.71967C6.07902 8.86032 6 9.05109 6 9.25C6 9.44891 6.07902 9.63968 6.21967 9.78033C6.36032 9.92098 6.55109 10 6.75 10H8V11.25C8 11.4489 8.07902 11.6397 8.21967 11.7803C8.36032 11.921 8.55109 12 8.75 12C8.94891 12 9.13968 11.921 9.28033 11.7803C9.42098 11.6397 9.5 11.4489 9.5 11.25V10H10.75C10.9489 10 11.1397 9.92098 11.2803 9.78033C11.421 9.63968 11.5 9.44891 11.5 9.25C11.5 9.05109 11.421 8.86032 11.2803 8.71967C11.1397 8.57902 10.9489 8.5 10.75 8.5H9.5V7.25ZM12 22.5C6.477 22.5 2 18.023 2 12.5C2 6.977 6.477 2.5 12 2.5C17.523 2.5 22 6.977 22 12.5C22 18.023 17.523 22.5 12 22.5ZM12 21C13.6173 21 15.201 20.5386 16.5652 19.67C17.9294 18.8014 19.0175 17.5616 19.7018 16.0962C20.386 14.6308 20.638 13.0006 20.4281 11.397C20.2183 9.79342 19.5553 8.28297 18.517 7.043L6.543 19.017C8.07138 20.3006 10.0041 21.0029 12 21ZM5.483 17.957L17.457 5.983C15.8281 4.61899 13.7474 3.91446 11.6248 4.00821C9.50232 4.10197 7.49185 4.98721 5.98953 6.48953C4.48721 7.99185 3.60197 10.0023 3.50821 12.1248C3.41446 14.2474 4.11899 16.3281 5.483 17.957Z" fill="#14B8A6"/>
</svg>
